<svg viewBox="0 0 512 512" xmlns="http://www.w3.org/2000/svg"><path d="m512 512h-226l-30-30-30 30h-226l256-512zm0 0" fill="#00dd7b"/><path d="m512 512h-226l-30-30v-482zm0 0" fill="#00cc71"/><path d="m320.394531 276.390625 21.210938 21.210937-60 60-21.210938-21.210937zm0 0" fill="#e2e2e7"/><path d="m350.394531 336.390625 21.210938 21.210937-90 90-21.210938-21.210937zm0 0" fill="#e2e2e7"/><path d="m191.605469 336.390625 60 60-21.210938 21.210937-60-60zm0 0" fill="#ececf1"/><path d="m226 272h60v240h-60zm0 0" fill="#ececf1"/><path d="m256 272h30v240h-30zm0 0" fill="#e2e2e7"/></svg>