<svg viewBox="0 0 512 512" xmlns="http://www.w3.org/2000/svg"><path d="m75 60c-24.902344 0-45 20.097656-45 45s20.097656 45 45 45 45-20.097656 45-45-20.097656-45-45-45zm0 0" fill="#7984eb"/><path d="m75 150c-41.398438 0-75 33.601562-75 75v136h150v-136c0-41.398438-33.601562-75-75-75zm0 0" fill="#7984eb"/><path d="m150 225v136h-75v-211c41.398438 0 75 33.601562 75 75zm0 0" fill="#4661d1"/><path d="m120 105c0 24.902344-20.097656 45-45 45v-90c24.902344 0 45 20.097656 45 45zm0 0" fill="#4661d1"/><path d="m210 150c-49.5 0-90 40.5-90 90v181h180v-181c0-49.5-40.5-90-90-90zm0 0" fill="#7984eb"/><path d="m210 30c-33 0-60 27-60 60s27 60 60 60 60-27 60-60-27-60-60-60zm0 0" fill="#7984eb"/><path d="m270 90c0 33-27 60-60 60v-120c33 0 60 27 60 60zm0 0" fill="#4661d1"/><path d="m300 240v181h-90v-271c49.5 0 90 40.5 90 90zm0 0" fill="#4661d1"/><path d="m391 180c-66.300781 0-121 53.699219-121 120v212h242v-212c0-66.300781-54.699219-120-121-120zm0 0" fill="#7984eb"/><path d="m391 0c-49.5 0-91 40.5-91 90s41.5 90 91 90 91-40.5 91-90-41.5-90-91-90zm0 0" fill="#7984eb"/><g fill="#4661d1"><path d="m512 300v212h-121v-332c66.300781 0 121 53.699219 121 120zm0 0"/><path d="m482 90c0 49.5-41.5 90-91 90v-180c49.5 0 91 40.5 91 90zm0 0"/></g></svg>