<svg viewBox="0 0 512 512" xmlns="http://www.w3.org/2000/svg"><path d="m391 360h97.113281c14.566407-32.066406 23.886719-67.546875 23.886719-105 0-91.003906-49.070312-170.804688-121-215.9375zm0 0" fill="#ff7816"/><path d="m121 230.621094-105.890625 107.285156c19.167969 55.523438 56.921875 102.308594 105.890625 133.03125zm0 0" fill="#00c0f1"/><path d="m219.09375 88.535156-68.261719-65.570312c-88.226562 40.152344-150.832031 128.941406-150.832031 232.035156 0 16.949219 2.742188 33.488281 5.914062 49.523438zm0 0" fill="#cb75f6"/><path d="m472 390c-45.300781 72-125.097656 122-216 122-37.5 0-72.898438-10.402344-105-24.800781v-97.199219zm0 0" fill="#6b0"/><path d="m472 390c-45.300781 72-125.097656 122-216 122v-122zm0 0" fill="#5cac00"/><path d="m361 22.800781v160.5l-105-101.101562-74.097656-71.097657c23.398437-7.203124 48.296875-11.101562 74.097656-11.101562 37.5 0 72.898438 8.402344 105 22.800781zm0 0" fill="#ff3939"/><path d="m361 183.300781-105-101.101562v-82.199219c37.5 0 72.898438 8.402344 105 22.800781zm0 0" fill="#c90232"/></svg>