<svg viewBox="0 0 512 512" xmlns="http://www.w3.org/2000/svg"><path d="m437 180c-8.402344 0-15-6.601562-15-15 0-90.902344-74.097656-165-165-165h-92c-90.902344 0-165 74.097656-165 165v182c0 90.898438 74.097656 165 165 165h182c90.902344 0 165-74.101562 165-165v-167zm-302-75h152c24.902344 0 45 20.101562 45 45s-20.097656 45-45 45h-152c-24.902344 0-45-20.101562-45-45s20.097656-45 45-45zm242 302h-242c-24.902344 0-45-20.101562-45-45s20.097656-45 45-45h242c24.902344 0 45 20.101562 45 45s-20.097656 45-45 45zm0 0" fill="#ff9f00"/><path d="m437 180c-8.402344 0-15-6.601562-15-15 0-90.902344-74.097656-165-165-165v105h30c24.902344 0 45 20.101562 45 45s-20.097656 45-45 45h-30v122h120c24.902344 0 45 20.101562 45 45s-20.097656 45-45 45h-120v105h90c90.902344 0 165-74.101562 165-165v-167zm0 0" fill="#ff7816"/></svg>