<svg viewBox="-45 1 511 511.999" xmlns="http://www.w3.org/2000/svg"><path d="m420.5 237.597656v57.003906c-18.597656 3.597657-14.699219 5.699219-57.296875 6.898438l-.902344.898438c-8.101562 18.898437-97.800781 195.199218-151.800781 208.699218-2.097656.601563-4.199219.902344-6.300781.902344h-1.800781l-1.5-.300781c-109.199219-21.601563-188.101563-311.601563-198.898438-422.601563l-1.5-16.5h80.097656l2.101563 12.898438c25.5 168.601562 64.199219 280.402344 122.699219 347 1.800781-1.5 3.601562-3.296875 5.101562-5.398438 26.097656-29.097656 53.699219-95.300781 78.898438-142.398437-25.5-11.703125-45-31.199219-59.101563-54.601563-8.699219-14.398437-15.296875-30.601562-19.796875-47.101562-3.300781-9.898438-5.402344-20.398438-6.902344-30.597656-3.898437-29.101563-1.5-56.101563 6.902344-78.898438 15.300781-42.601562 51.300781-71.699219 105.902344-73.5 64.195312 0 102.898437 42.898438 104.097656 113.699219-1.199219 34.800781-6.300781 60-20.699219 96.300781l-1.800781.300781c-27.597656 4.5-54-2.703125-71.097656-26.402343 9-9.898438 16.195312-38.097657 15.597656-63.597657-.597656-25.800781-9-49.199219-32.097656-49.800781-24.300782 2.097656-32.703125 30.601562-33 55.199219 11.699218 147.601562 140.097656 111.300781 143.097656 111.898437zm0 0" fill="#00dd7b"/><path d="m420.5 237.597656v57.003906c-18.597656 3.597657-14.699219 5.699219-57.296875 6.898438l-.902344.898438c-8.101562 18.898437-97.800781 195.199218-151.800781 208.699218v-84c26.101562-29.097656 53.699219-95.300781 78.902344-142.398437-25.5-11.703125-45-31.199219-59.101563-54.601563-8.699219-14.398437-15.300781-30.601562-19.800781-47.101562v-109.496094c15.300781-42.601562 51.300781-71.699219 105.902344-73.5 64.195312 0 102.898437 42.898438 104.097656 113.699219-1.199219 34.800781-6.300781 60-20.699219 96.300781l-1.800781.300781c-27.597656 4.5-54-2.703125-71.097656-26.402343 9-9.898438 16.195312-38.097657 15.597656-63.597657-.597656-25.800781-9-49.199219-32.097656-49.800781-24.300782 2.097656-32.703125 30.601562-33 55.199219 11.699218 147.601562 140.097656 111.300781 143.097656 111.898437zm0 0" fill="#00cc71"/></svg>