<svg viewBox="0 1 511 511.99898" xmlns="http://www.w3.org/2000/svg"><path d="m60.496094 253.882812h-30v-208.882812c0-24.816406 20.1875-45 45-45h361.988281c24.816406 0 45 20.183594 45 45v208.867188h-30v-208.867188c0-8.277344-6.722656-15-15-15h-361.988281c-8.273438 0-15 6.722656-15 15zm0 0" fill="#d3d3d8"/><path d="m482.484375 45v238.890625h-30v-238.890625c0-8.402344-6.597656-15-15-15h-361.988281c-8.398438 0-15 6.597656-15 15v238.890625h-30v-238.890625c0-24.902344 20.101562-45 45-45h361.988281c24.902344 0 45 20.097656 45 45zm0 0" fill="#d3d3d8"/><path d="m482.484375 45v238.890625h-30v-238.890625c0-8.402344-6.597656-15-15-15h-180.992187v-30h180.992187c24.902344 0 45 20.097656 45 45zm0 0" fill="#babac0"/><path d="m150.171875 240.992188c-32.796875 0-59.484375-26.6875-59.484375-59.484376 0-32.796874 26.6875-59.484374 59.484375-59.484374s59.484375 26.6875 59.484375 59.484374c0 32.796876-26.6875 59.484376-59.484375 59.484376zm0 0" fill="#ff9f00"/><path d="m339.988281 367.289062-83.496093-13.800781-46-7.5v135.996094c0 16.5-13.5 30-30 30h-24.296876c-58.5 0-75.601562-106.898437-66.601562-173.496094l1.804688-11.097656-10.5-4.5c-35.402344-15.300781-53.792969-37.199219-76.890626-65.097656-5.101562-6.300781-4.5-14.402344.898438-20.097657 5.398438-5.699218 13.800781-6.300781 20.398438-1.203124 46.199218 25.800781 75.09375 32.398437 104.492187 34.5h68.398437c8.097657 0 16.199219 1.800781 23.097657 5.398437l35.199219 17.101563 82.894531 40.796874zm0 0" fill="#ff9f00"/><path d="m339.988281 367.289062-83.496093-13.800781v-59.996093l82.898437 40.796874zm0 0" fill="#ff7816"/><g fill="#7984eb"><path d="m363.457031 240.992188c-32.550781 0-59.03125-26.484376-59.03125-59.03125 0-32.546876 26.480469-59.03125 59.03125-59.03125 32.546875 0 59.03125 26.484374 59.03125 59.03125 0 32.546874-26.484375 59.03125-59.03125 59.03125zm0 0"/><path d="m332.488281 511.984375c-16.535156 0-30-13.460937-30-30v-180.992187c0-16.539063 13.464844-30 30-30h50.800781c29.707032-2.242188 58.445313-8.964844 104.0625-34.628907 7.527344-5.511719 14.863282-4.527343 20.402344 1.171875 11.898438 12.242188-2.226562 22.453125-3.632812 25.472656-18.058594 21.945313-37.117188 44.632813-71.980469 59.78125l-10.429687 4.523438 1.550781 11.28125c8.960937 65.09375-7.902344 173.40625-66.910157 173.40625zm0 0"/></g></svg>