<svg viewBox="0 -24 511.99965 511" xmlns="http://www.w3.org/2000/svg"><path d="m370.691406 298.171875c-21.75-54.601563-19.785156-101.71875 5.011719-120.027344 38.632813-28.421875 103.417969 27.839844 123.980469 75.058594 15.738281 36.144531 16.828125 77.714844.746094 114.917969-5.023438 11.628906-15.394532 20.210937-28.429688 23.535156-44.058594 11.226562-84.535156-51.367188-101.308594-93.484375zm0 0" fill="#ff7816"/><path d="m268.0625 152.785156c-3.300781-6.902344-6.898438-13.5-11.097656-19.796875-44.09375-73.792969-112.738282-100.488281-163.730469-100.488281-67.191406 0-86.1875 34.496094-90.6875 49.492188-9.597656 31.5 8.5 67.792968 44.792969 92.6875 59.992187 40.796874 142.433594 28.199218 209.625.300781 1.199218-.601563 2.398437-.898438 3.597656-1.5l14.398438-6.597657zm0 0" fill="#fdbf00"/><g fill="#ff9f00"><path d="m428.839844 415.546875c-64.492188-29.996094-119.382813-154.480469-98.085938-221.667969l8.996094-28.796875-28.496094 9.898438c-22.195312 7.800781-40.492187 19.496093-54.289062 34.195312-26.398438 27.296875-36.894532 65.988281-29.394532 110.386719 4.496094 26.394531 14.695313 51.890625 29.394532 73.785156 37.492187 56.09375 103.183594 87.890625 172.773437 48.894532l25.496094-14.398438zm0 0"/><path d="m291.574219 161.136719-5.773438-15.332031c-20.09375-53.34375-12.15625-100.488282 21.78125-129.371094 18.644531-15.894532 40.730469-20.273438 57.675781-11.441406 7.835938 4.101562 25.675782 17.460937 22.144532 52.917968-3.925782 38.710938-32.71875 72.835938-81.066406 96.125zm0 0"/><path d="m282.976562 463.03125-42.898437-9.007812c-32.617187-6.855469-64.578125-16.347657-94.984375-28.195313-11.6875-4.585937-17.207031-16.652344-12.871094-28.0625 11.949219-31.5625 26.449219-61.984375 43.074219-90.398437l22.292969-38.09375 5.535156 43.792968c5.59375 44.246094 22.421875 82.382813 51.464844 116.570313zm0 0"/><path d="m260.5625 173.480469c-1.199219.601562-2.398438.898437-3.597656 1.5v-41.992188c4.199218 6.296875 7.796875 12.894531 11.097656 19.796875l6.898438 14.097656zm0 0"/></g><path d="m455.234375 427.84375-25.496094 14.398438c-69.589843 38.996093-135.28125 7.199218-172.773437-48.894532v-184.171875c13.796875-14.699219 32.09375-26.394531 54.289062-34.195312l28.496094-9.898438-8.996094 28.796875c-21.300781 67.191406 33.59375 191.671875 98.085938 221.667969zm0 0" fill="#ff7816"/></svg>