<svg viewBox="0 0 512 512" xmlns="http://www.w3.org/2000/svg"><path d="m481.398438 271.398438c.300781-4.796876.601562-9.597657.601562-14.398438 0-124.199219-101.800781-227-226-227-4.800781 0-9.601562.300781-14.398438.601562-26.101562-19.800781-57.902343-30.601562-90.601562-30.601562-82.800781 0-151 69.199219-151 152 0 32.699219 10.800781 64.5 30.601562 90.597656-.300781 4.800782-.601562 9.601563-.601562 14.402344 0 124.199219 101.800781 225 226 225 4.800781 0 9.601562-.300781 14.398438-.601562 26.101562 19.800781 57.902343 30.601562 90.601562 30.601562 82.800781 0 151-67.199219 151-150 0-32.699219-10.800781-64.5-30.601562-90.601562zm0 0" fill="#25d9f8"/><path d="m512 362c0 82.800781-68.199219 150-151 150-32.699219 0-64.5-10.800781-90.601562-30.601562-4.796876.300781-9.597657.601562-14.398438.601562v-452c124.199219 0 226 102.800781 226 227 0 4.800781-.300781 9.601562-.601562 14.398438 19.800781 26.101562 30.601562 57.902343 30.601562 90.601562zm0 0" fill="#00c0f1"/><path d="m256 227c-24.300781 0-60-12-60-30 0-17.699219 36-29.699219 58.199219-29.699219h1.800781c26.699219.296875 48.300781 10.5 56.101562 19.796875 12.597657 15.601563 40.496094 13.203125 50.097657-6.597656 10.199219-20.699219-6.898438-38.101562-25.800781-51-21-13.800781-50.699219-20.699219-80.398438-20.699219-78.601562 0-120 44.398438-120 88.199219 0 45 45.898438 90 120 90 24.300781 0 60 12 60 30 0 17.699219-36 29.699219-58.199219 29.699219h-1.800781c-26.699219-.300781-48.300781-10.5-56.101562-19.800781-11.097657-13.796876-39.898438-14.699219-50.097657 6.601562-10.199219 20.699219 6.898438 38.101562 25.800781 51 21.898438 14.398438 50.398438 22.5 80.398438 22.5 74.097656 0 120-44.699219 120-90 0-45-45.902344-90-120-90zm0 0" fill="#ececf1"/><g fill="#e2e2e7"><path d="m376 317c0 45.300781-45.902344 90-120 90v-60.300781h1.800781c22.199219 0 58.199219-12 58.199219-29.699219 0-18-35.699219-30-60-30v-60c74.097656 0 120 45 120 90zm0 0"/><path d="m312.101562 187.097656c-7.800781-9.296875-29.402343-19.5-56.101562-19.796875v-58.5c29.699219 0 59.398438 6.898438 80.398438 20.699219 18.902343 12.898438 36 30.300781 25.800781 51-9.601563 19.800781-37.5 22.199219-50.097657 6.597656zm0 0"/></g></svg>