<svg viewBox="-31 0 512 512.0012" xmlns="http://www.w3.org/2000/svg"><path d="m448.714844 194.707031c-6.003906-78.324219-34.210938-172.050781-81.925782-190.054687-31.808593-12.003906-82.824218-.300782-129.9375 29.707031-3.601562 2.101563-7.503906 4.800781-11.703124 8.101563-41.414063 29.410156-114.335938 100.332031-131.738282 232.96875-3.902344-11.402344-5.101562-23.707032-6.003906-35.710938-1.5-28.804688 1.800781-51.3125 3.902344-66.316406 1.199218-8.40625 1.800781-13.503906 1.5-17.707032-.902344-11.703124-7.5-20.707031-17.105469-23.40625-9.902344-2.402343-19.804687 1.800782-26.40625 11.101563-55.519531 80.125-54.316406 151.246094-43.214844 197.160156 14.40625 61.21875 55.21875 114.734375 111.933594 145.34375 32.109375 17.105469 68.421875 26.105469 104.730469 26.105469h2.402344c36.609374-.300781 72.621093-9.601562 104.730468-27.308594 84.925782-48.011718 129.335938-157.042968 118.835938-289.984375zm0 0" fill="#00dd7b"/><path d="m329.878906 484.691406c-32.109375 17.707032-68.121094 27.007813-104.734375 27.308594v-469.539062c4.203125-3.300782 8.105469-6 11.707031-8.101563 47.113282-30.011719 98.125-41.710937 129.9375-29.710937 47.714844 18.007812 75.921876 111.734374 81.921876 190.058593 10.503906 132.941407-33.90625 241.972657-118.832032 289.984375zm0 0" fill="#00cc71"/></svg>