<svg viewBox="0 0 512 512" xmlns="http://www.w3.org/2000/svg"><path d="m256 0c-140.699219 0-256 115.300781-256 256s115.300781 256 256 256 256-115.300781 256-256-115.300781-256-256-256zm0 0" fill="#25d9f8"/><path d="m512 256c0 140.699219-115.300781 256-256 256v-512c140.699219 0 256 115.300781 256 256zm0 0" fill="#00c0f1"/><path d="m331 330.699219v-44.699219h-150v45l-105.601562-75 105.601562-75v45h150v-45l105 75zm0 0" fill="#ececf1"/><path d="m331 330.699219v-44.699219h-75v-60h75v-45l105 75zm0 0" fill="#e2e2e7"/></svg>