<svg viewBox="0 0 512 512" xmlns="http://www.w3.org/2000/svg"><path d="m68.699219 0-68.699219 68.699219v383.300781h120v60h82.300781l60-60h151l98.699219-98.699219v-353.300781zm0 0" fill="#b760ea"/><path d="m512 0v353.300781l-98.699219 98.699219h-151l-6.300781 6.300781v-458.300781zm0 0" fill="#a24bdb"/><path d="m90 60v302h91v81.300781l81.300781-81.300781h121l68.699219-68.699219v-233.300781zm0 0" fill="#ececf1"/><path d="m452 60v233.300781l-68.699219 68.699219h-121l-6.300781 6.300781v-308.300781zm0 0" fill="#e2e2e7"/><path d="m241 165h30v92h-30zm0 0" fill="#b760ea"/><g fill="#a24bdb"><path d="m332 165h30v92h-30zm0 0"/><path d="m256 165h15v92h-15zm0 0"/></g></svg>