<svg viewBox="0 -16 512 512" xmlns="http://www.w3.org/2000/svg"><path d="m151 330-151-90 106-75 150 90zm0 0" fill="#25d9f8"/><path d="m406 165-150-90 105-75 151 90zm0 0" fill="#00c0f1"/><path d="m256 75-150 90-106-75 151-90zm0 0" fill="#25d9f8"/><path d="m512 270-151 90-105-105 150-90zm0 0" fill="#00c0f1"/><g fill="#25d9f8"><path d="m241 302.578125-88.5625 63.265625-61.4375-36.859375v63.269531l150 87.742188zm0 0"/><path d="m356.355469 397.777344-85.355469-85.355469v167.578125l150-87.730469v-33.277343zm0 0"/></g></svg>