<svg viewBox="-61 1 511 511.99996" xmlns="http://www.w3.org/2000/svg"><path d="m166.191406 238.949219c-8.207031-8.558594-113.472656-182.496094-115.949218-186.21875-5.972657-8.820313 2.273437-19.878907 11.664062-25.207031 21.28125-12.019532 73.660156-27.523438 100.082031-27.523438 17.019531 0 20.9375 7.535156 21.984375 22.246094.292969 3.019531 18.414063 198.390625 15.292969 209.050781-2.109375 7.210937-7.222656 12.457031-13.703125 14.039063-6.34375 1.554687-13.617188-.375-19.371094-6.386719zm0 0" fill="#ff3939"/><path d="m4.1875 341.066406c-5.890625-23.402344-4.1484375-61.667968 1.1875-82.730468 3.257812-12.878907 11.386719-23.089844 23.933594-18.714844 17.527344 6.214844 117.859375 41.550781 117.859375 41.550781 7.707031 3.195313 11.914062 9.378906 12.484375 18.40625.632812 10.230469-4.4375 18.613281-12.925782 21.339844-18.285156 5.035156-41.511718 15.367187-122.609374 33.648437-9.515626 2.101563-17.503907-3.902344-19.929688-13.5zm0 0" fill="#ff3939"/><path d="m237.019531 255.105469c14.386719-22.300781 67.476563-96.128907 79.320313-110.980469 7.34375-8.445312 20.234375-4.257812 28.371094 3.296875 15.710937 14.527344 35.011718 43.074219 43.058593 63.652344 5.164063 13.1875 4.425781 26.300781-9.160156 29.835937-6.183594 1.628906-113.054687 44.230469-117.65625 45.242188-18.324219 3.804687-34.035156-15.390625-23.933594-31.046875zm0 0" fill="#c90232"/><path d="m377.457031 382.871094-111.066406-54.640625c-19.316406-6.441407-34.5 15.550781-25.03125 31.082031 10.347656 17.019531 64.917969 110.683594 66.3125 112.464844 10.316406 13.1875 19.734375 11.269531 32.585937.566406 16.253907-13.554688 36.859376-39.757812 45.929688-58.429688 7.367188-15.15625 6.644531-24.816406-8.730469-31.042968zm0 0" fill="#c90232"/><path d="m179.585938 512c-18.984376 0-55.054688-13.460938-73.367188-23.667969-13.882812-7.757812-24.570312-17.972656-15.183594-30.71875 6.242188-8.515625 71.371094-101.550781 71.371094-101.550781 12.410156-14.734375 33.148438-4.800781 33.175781 12.410156.042969 60.953125.027344 116.09375 0 125.691406-.027343 12.402344-3.542969 17.835938-15.996093 17.835938zm0 0" fill="#ff3939"/></svg>