<svg viewBox="0 0 512 512" xmlns="http://www.w3.org/2000/svg"><path d="m437 0h-362c-41.398438 0-75 33.601562-75 75v362c0 41.398438 33.601562 75 75 75h362c41.398438 0 75-33.601562 75-75v-362c0-41.398438-33.601562-75-75-75zm0 0" fill="#7984eb"/><path d="m512 75v362c0 41.398438-33.601562 75-75 75h-181v-512h181c41.398438 0 75 33.601562 75 75zm0 0" fill="#4661d1"/><path d="m181 181h30v150h-30zm0 0" fill="#ececf1"/><path d="m120 181h-60v150h90v-210h-30zm0 120h-30v-90h30zm0 0" fill="#ececf1"/><path d="m362 181v150h60v30h-60v30h90v-210zm60 120h-30v-90h30zm0 0" fill="#e2e2e7"/><path d="m241 181v150h60v30h-60v30h90v-210zm60 120h-30v-90h30zm0 0" fill="#ececf1"/><path d="m256 181v150h45v30h-45v30h75v-210zm45 120h-30v-90h30zm0 0" fill="#e2e2e7"/><path d="m181 121h30v30h-30zm0 0" fill="#ececf1"/></svg>