<svg viewBox="0 -121 512 512" xmlns="http://www.w3.org/2000/svg"><path d="m437.300781 168.601562c-4.800781-6.300781-9.300781-16.203124-4.5-28.203124 3.898438-10.5 15.898438-32.699219 24.898438-45 53.101562-71.699219 41.402343-72.898438 54.300781-95.398438h-101.398438s-7.203124 25.199219-9.601562 29.398438c-19.5 39.902343-63.101562 99.300781-89.5 105.300781-26.101562 6-22.796875-55.5-21-82.199219 1.5-24.601562 1.199219-33.300781.300781-37.5-.902343-6.300781-6.300781-10.800781-12.601562-11.699219-8.699219-.902343-21.597657-2.402343-37.199219-2.703125-8.101562-.296875-16.5-.296875-25.5 0l-23.398438.902344c9.296876 20.699219 15.597657 14.398438 18.898438 38.398438 3.898438 27.902343 2.402344 96.300781-25.5 96.300781-44.398438 0-94-133.199219-95.800781-136.199219h-89.699219l8.101562 20.699219c60.300782 150.898437 135.097657 228 232.898438 245.402343 9.601562 1.796876 19.5 2.996094 29.699219 3.597657l14.699219.300781 1.203124-14.402344c1.5-21.898437 12.597657-54 32.097657-54 29.101562 0 37.601562 8.703125 56.800781 32.402344 18.300781 22.5 31.199219 36 60.898438 36h75.601562l-10.800781-21.601562c-16.796875-33.898438-50.699219-63-63.898438-79.796876zm0 0" fill="#7984eb"/><path d="m501.199219 248.398438 10.800781 21.601562h-75.601562c-29.699219 0-42.597657-13.5-60.898438-36-19.199219-23.699219-27.699219-32.402344-56.800781-32.402344-19.5 0-30.601563 32.101563-32.097657 54l-1.203124 14.402344-14.699219-.300781c-10.199219-.601563-20.097657-1.800781-29.699219-3.597657v-265.503906c15.601562.300782 28.5 1.800782 37.199219 2.703125 6.300781.898438 11.699219 5.398438 12.597656 11.699219.902344 4.199219 1.203125 12.898438-.296875 37.5-1.800781 26.699219-5.101562 88.199219 21 82.199219 26.398438-6 70-65.398438 89.5-105.300781 2.398438-4.199219 9.597656-29.398438 9.597656-29.398438h101.402344c-12.898438 22.5-1.199219 23.699219-54.300781 95.402344-9 12.296875-21 34.496094-24.898438 45-4.800781 11.996094-.300781 21.898437 4.5 28.199218 13.199219 16.796876 47.101563 45.898438 63.898438 79.796876zm0 0" fill="#4661d1"/></svg>