<svg viewBox="0 0 512 512" xmlns="http://www.w3.org/2000/svg"><g fill="#ff9f00"><path d="m128.101562 383.898438c-29.402343-29.097657-76.800781-29.097657-106.203124 0-29.097657 29.398437-29.097657 76.800781 0 106.199218 29.402343 29.101563 76.800781 29.101563 106.203124 0 29.097657-29.398437 29.097657-76.796875 0-106.199218zm0 0"/><path d="m330 497c0 5.097656-.601562 9.898438-.902344 15h-90c.601563-5.101562.902344-9.902344.902344-15 0-62.101562-25.199219-118.199219-66-159s-96.898438-66-159-66c-5.097656 0-9.902344.300781-15 .898438v-90c5.097656-.300782 9.902344-.898438 15-.898438 87 0 165.601562 35.398438 222.597656 92.398438 57.003906 57 92.402344 135.601562 92.402344 222.601562zm0 0"/><path d="m512 497c0 5.097656-.601562 9.898438-.902344 15h-92c.300782-5.101562.902344-9.902344.902344-15 0-111.601562-45.300781-213-118.800781-286.199219-73.199219-73.5-174.601563-118.800781-286.199219-118.800781-5.097656 0-9.902344.601562-15 .902344v-92c5.097656-.300782 9.902344-.902344 15-.902344 136.800781 0 260.398438 57.5 350.097656 146.898438 89.402344 89.703124 146.902344 213.300781 146.902344 350.101562zm0 0"/></g><path d="m128.101562 383.898438c29.097657 29.398437 29.097657 76.800781 0 106.199218-29.402343 29.101563-76.800781 29.101563-106.203124 0zm0 0" fill="#ff7816"/><path d="m237.597656 274.398438c57.003906 57 92.402344 135.601562 92.402344 222.601562 0 5.097656-.601562 9.898438-.902344 15h-90c.601563-5.101562.902344-9.902344.902344-15 0-62.101562-25.199219-118.199219-66-159zm0 0" fill="#ff7816"/><path d="m512 497c0 5.097656-.601562 9.898438-.902344 15h-92c.300782-5.101562.902344-9.902344.902344-15 0-111.601562-45.300781-213-118.800781-286.199219l63.898437-63.902343c89.402344 89.703124 146.902344 213.300781 146.902344 350.101562zm0 0" fill="#ff7816"/></svg>