<svg viewBox="-31 0 512 512" xmlns="http://www.w3.org/2000/svg"><path d="m225 0c-124.199219 0-225 101.800781-225 226 0 119.097656 93 217.898438 210 225.398438v60.601562h15c121.199219 0 225-157.601562 225-286 0-124.199219-100.800781-226-225-226zm0 0" fill="#00dd7b"/><path d="m450 226c0 128.398438-103.800781 286-225 286v-512c124.199219 0 225 101.800781 225 226zm0 0" fill="#00cc71"/><path d="m135 256h-30v-90h90v90c0 33.089844-26.910156 60-60 60zm0 0" fill="#ececf1"/><path d="m285 256h-30v-90h90v90c0 33.089844-26.910156 60-60 60zm0 0" fill="#e2e2e7"/></svg>