<svg viewBox="0 -45 511.99988 511" xmlns="http://www.w3.org/2000/svg"><path d="m511.835938 63.816406c5.402343 94.226563-123.132813 252.96875-205.054688 323.1875-17.40625 14.703125-34.808594 25.207032-50.714844 30.007813-7.5 2.398437-14.703125 3.601562-21.304687 3.601562-81.621094 0-116.53125-225.359375-160.042969-290.179687-8.101562-12-18.003906-18.003906-29.105469-18.003906-12.605469 0-24.007812 7.203124-38.113281 16.804687l-.601562.300781-6.898438-25.808594 20.105469-16.804687c26.105469-21.605469 51.914062-43.210937 78.320312-63.914063 11.703125-9.304687 25.207031-14.105468 38.109375-14.105468 18.304688 0 32.710938 9.300781 37.808594 24.605468 16.804688 51.015626 40.011719 200.152344 81.722656 247.867188 8.101563 9.601562 17.105469 15.003906 27.007813 15.003906 35.109375 0 110.226562-115.832031 113.828125-160.542968 2.703125-39.308594-24.304688-60.917969-63.015625-54.914063 22.507812-52.816406 67.21875-80.421875 111.929687-80.421875 23.40625 0 62.71875 8.101562 66.019532 63.316406zm0 0" fill="#25d9f8"/><path d="m511.835938 63.816406c5.402343 94.226563-123.132813 252.96875-205.054688 323.1875-17.40625 14.703125-34.808594 25.207032-50.714844 30.007813v-135.636719c8.105469 9.601562 17.105469 15.003906 27.007813 15.003906 35.109375 0 110.230469-115.832031 113.828125-160.542968 2.703125-39.308594-24.304688-60.914063-63.015625-54.914063 22.507812-52.8125 67.21875-80.421875 111.929687-80.421875 23.40625 0 62.71875 8.101562 66.019532 63.316406zm0 0" fill="#00c0f1"/></svg>