<svg viewBox="-61 0 512 512" xmlns="http://www.w3.org/2000/svg"><path d="m195 0c-107.402344 0-195 88.597656-195 196 0 101.101562 152.699219 316 195 316s195-214.898438 195-316c0-107.402344-87.597656-196-195-196zm0 0" fill="#25d9f8"/><path d="m390 196c0 101.101562-152.699219 316-195 316v-512c107.402344 0 195 88.597656 195 196zm0 0" fill="#00c0f1"/><path d="m330 196c0 74.398438-60.601562 135-135 135s-135-60.601562-135-135c0-21.902344 5.699219-42.300781 15-60.601562v.601562l62.402344-2.402344-2.402344-57.597656c-.300781 0-.300781 0-.601562 0 18.300781-9.300781 38.703124-15 60.601562-15 74.398438 0 135 60.597656 135 135zm0 0" fill="#ececf1"/><path d="m330 196c0 74.398438-60.601562 135-135 135v-270c74.398438 0 135 60.597656 135 135zm0 0" fill="#e2e2e7"/><path d="m300 196c0 57.898438-47.101562 105-105 105s-105-47.101562-105-105 47.101562-105 105-105 105 47.101562 105 105zm0 0" fill="#ff7816"/><path d="m300 196c0 57.898438-47.101562 105-105 105v-210c57.898438 0 105 47.101562 105 105zm0 0" fill="#ff4b00"/><path d="m135 196c33.136719 0 60-26.863281 60-60s-26.863281-60-60-60c-.230469 0-.441406.066406-.675781.066406-25.558594 12.996094-46.261719 33.699219-59.257813 59.257813 0 .234375-.066406.445312-.066406.675781 0 33.136719 26.863281 60 60 60zm0 0" fill="#ececf1"/></svg>