<svg viewBox="0 0 512 512" xmlns="http://www.w3.org/2000/svg"><path d="m256 0c-140.699219 0-256 115.300781-256 256s115.300781 256 256 256 256-115.300781 256-256-115.300781-256-256-256zm0 0" fill="#ffd400"/><path d="m512 256c0 140.699219-115.300781 256-256 256v-512c140.699219 0 256 115.300781 256 256zm0 0" fill="#fdbf00"/><path d="m166 211c-24.8125 0-45-20.1875-45-45s20.1875-45 45-45 45 20.1875 45 45-20.1875 45-45 45zm0 0" fill="#3e5959"/><path d="m346 211c-24.8125 0-45-20.1875-45-45s20.1875-45 45-45 45 20.1875 45 45-20.1875 45-45 45zm0 0" fill="#384949"/><path d="m445.601562 301c-20.402343 85.800781-97.5 150-189.601562 150s-169.199219-64.199219-189.601562-150l189.601562-30h.601562zm0 0" fill="#ff5b5b"/><path d="m445.601562 301c-20.402343 85.800781-97.5 150-189.601562 150v-180h.601562zm0 0" fill="#ff3939"/><path d="m451 241v15c0 15.597656-2.101562 30.597656-5.398438 45h-379.203124c-3.296876-14.402344-5.398438-29.402344-5.398438-45v-15zm0 0" fill="#ececf1"/><path d="m451 241v15c0 15.597656-2.101562 30.597656-5.398438 45h-189.601562v-60zm0 0" fill="#e2e2e7"/></svg>