<svg viewBox="0 -16 512.00043 512" xmlns="http://www.w3.org/2000/svg"><path d="m509.386719 373.5c-9.902344 24-41.398438 30.898438-65.097657 35.699219-1.5 8.101562-4.5 21-15.902343 28.199219-7.796875 5.101562-18 6-30 3-32.699219-8.699219-54.183594 7.199218-72.785157 19.800781-4.5 3-8.402343 5.699219-12 7.5-17.398437 8.101562-37.800781 12.300781-57.601562 12.300781-.300781 0-.300781 0-.601562 0-18.300782 0-36.296876-3.601562-52.5-9.902344-15-8.097656-24-14.699218-31.199219-19.796875-15.898438-11.699219-20.132813-15-64.832031-8.101562-20.398438 3-33.597657-8.101563-39.300782-33-22.5-4.5-49.796875-11.101563-61.796875-29.699219-6.300781-9.601562-7.5-21-3.300781-30.601562 3.898438-9 12-15.601563 21.898438-17.699219l20.398437-8.101563c30.902344-11.996094 52.535156-38.398437 59.433594-70.5l2.703125-12.597656h-45.902344c-16.5 0-30-13.5-30-30s13.5-30 30-30h45l-1.5-14.402344c-8.101562-89.097656 62.402344-165.597656 151.5-165.597656 89.398438 0 159.300781 76.800781 151.5 165.597656l-1.5 14.402344h45c16.5 0 30 13.5 30 30s-13.5 30-30 30h-44.398438c3.300782 36.898438 25.6875 69.601562 60.785157 83.097656l22.203125 8.703125c6.898437 1.199219 14.699218 7.199219 18.898437 15.300781 4.199219 7.796876 4.800781 17.699219.898438 26.398438zm0 0" fill="#ffd400"/><path d="m509.386719 373.5c-9.902344 24-41.398438 30.898438-65.097657 35.699219-1.5 8.101562-4.5 21-15.902343 28.199219-7.796875 5.101562-18 6-30 3-32.699219-8.699219-54.183594 7.199218-72.785157 19.800781-4.5 3-8.402343 5.699219-12 7.5-17.398437 8.101562-37.800781 12.300781-57.601562 12.300781v-480c89.398438 0 159.300781 76.800781 151.5 165.597656l-1.5 14.402344h45c16.5 0 30 13.5 30 30s-13.5 30-30 30h-44.398438c3.300782 36.898438 25.6875 69.601562 60.785157 83.097656l22.203125 8.703125c6.898437 1.199219 14.699218 7.199219 18.898437 15.300781 4.199219 7.796876 4.800781 17.699219.898438 26.398438zm0 0" fill="#fdbf00"/></svg>