<svg viewBox="-91 0 512 512" xmlns="http://www.w3.org/2000/svg"><path d="m292.5 151-22.5 15 15 15-30 120h-135l-120 211v-512h330zm0 0" fill="#ff5ca8"/><path d="m292.5 151-22.5 15 15 15-30 120h-90v-301h165zm0 0" fill="#ff3997"/><path d="m291.597656 30-60 241h-129l-72.597656 127.898438v-368.898438zm0 0" fill="#ececf1"/><path d="m291.597656 30-60 241h-66.597656v-241zm0 0" fill="#e2e2e7"/><path d="m292.5 151-7.5 30h-165v-30zm0 0" fill="#ff7cb9"/><path d="m292.5 151-7.5 30h-120v-30zm0 0" fill="#ff3997"/></svg>