<svg viewBox="0 0 512.00078 512" xmlns="http://www.w3.org/2000/svg"><path d="m255.910156 0c-.300781 0-.300781 0-.601562 0-143.074219 0-246.355469 67.1875-254.753906 184.46875-5.398438 74.984375 30.292968 108.878906 35.09375 118.480469l58.789062-46.492188c-3.300781-7.199219-23.394531-35.09375-21.296875-70.191406 3.300781-58.789063 83.1875-122.675781 180.367187-122.675781h2.402344c100.183594 1.199218 180.066406 68.988281 180.066406 131.675781.300782 120.578125-163.570312 113.378906-165.070312 59.390625v-104.683594h-59.988281l.300781 223.960938c-.601562 61.488281-36.597656 81.585937-69.890625 70.1875l-18.597656-6.597656c-.898438 16.496093-1.796875 25.195312-1.796875 34.492187 0 12.597656 1.195312 24.296875 12.59375 29.394531 15.898437 6.902344 32.097656 10.5 47.695312 10.5 35.089844 0 59.988282-14.996094 74.6875-44.691406 9.597656-19.5 15.394532-44.992188 15.996094-76.789062v-50.589844l9.796875 2.097656c143.078125 29.996094 225.960937-52.191406 230.160156-149.375 5.101563-115.773438-135.972656-192.261719-255.953125-192.5625zm0 0" fill="#ff3939"/><path d="m511.867188 192.566406c-4.199219 97.183594-87.085938 179.367188-230.160157 149.375l-9.800781-2.101562v50.59375c-.597656 31.796875-6.398438 57.289062-15.996094 76.789062v-317.246094h14.996094v104.679688c1.5 53.992188 165.371094 61.191406 165.074219-59.386719 0-62.691406-79.886719-130.480469-180.070313-131.679687v-63.58593775c119.980469.29687475 261.054688 76.78515575 255.957032 192.56249975zm0 0" fill="#c90232"/></svg>