<svg viewBox="-61 0 511 512" xmlns="http://www.w3.org/2000/svg"><path d="m389.671875 166.800781c2.402344 104.101563-82.800781 178.5-158.097656 178.5-3.003907 0-18.601563-.300781-36.304688-5.101562-16.5-4.199219-35.097656-12.597657-47.398437-28.199219-8.699219 25.5-40.800782 130.101562-71.699219 170.601562l-22.199219 29.398438-4.5-36.597656c-4.800781-38.101563 16.800782-106.402344 32.699219-160.402344 6.300781-21.597656 26.097656-88.5 22.5-98.699219-9.300781-26.101562-9.601563-49.800781-.597656-72.601562 10.796875-27.296875 32.695312-37.199219 49.195312-37.199219 22.5 0 39.601563 15.902344 38.101563 39.902344-1.5 25.796875-14.097656 64.199218-24.296875 96.300781-4.203125 13.796875-2.101563 26.398437 5.699219 36.898437 3.597656 4.796876 12 9.597657 22.5 13.199219 9.300781 3 20.398437 5.097657 30 5.097657 56.699218 0 90-72.898438 90-128.097657 0-35.402343-13.800782-63-36.898438-82.203125-21-17.699218-49.800781-27.597656-83.101562-29.097656-2.703126-.300781-5.699219-.300781-8.699219-.300781-58.800781 0-120.902344 29.101562-130.203125 87.601562-8.398438 40.199219 2.703125 89.398438 12.601562 104.398438-.601562 1.800781-6.898437 26.398437-7.5 27.902343-39-14.703124-72.300781-69.003906-57.300781-140.402343 15.898437-75.597657 80.402344-135.597657 191.101563-137.398438 1.800781-.300781 3.597656-.300781 5.699218-.300781 119.699219 0 186.597656 75.902344 188.699219 166.800781zm0 0" fill="#ff3939"/><path d="m389.671875 166.800781c2.402344 104.101563-82.800781 178.5-158.097656 178.5-3.003907 0-18.601563-.300781-36.304688-5.101562v-47.398438c9.300781 3 20.402344 5.097657 30 5.097657 56.703125 0 90-72.898438 90-128.101563 0-35.398437-13.800781-62.996094-36.898437-82.199219-21-17.699218-49.800782-27.597656-83.101563-29.097656v-58.199219c1.800781-.300781 3.601563-.300781 5.703125-.300781 119.699219 0 186.597656 75.902344 188.699219 166.800781zm0 0" fill="#c90232"/></svg>