<svg viewBox="-61 0 511 511.99993" xmlns="http://www.w3.org/2000/svg"><path d="m374.292969 391.101562c25.199219 32.699219 19.5 79.800782-13.5 105.296876-32.699219 25.203124-79.800781 19.199218-105.296875-13.800782l-60-84.59375-45-64.300781v103.296875c0 41.402344-33.597656 75-74.996094 75-41.402344 0-75-33.597656-75-75v-361.992188c0-41.398437 33.597656-74.9960932 75-74.9960932 41.398438 0 74.996094 33.5976562 74.996094 74.9960932v103.199219l45-63.300781 60.601562-85.496094c25.796875-33.601562 72.898438-38.699218 104.996094-13.800781 33 25.199219 39 72.300781 13.800781 105.296875l-95.101562 135.398438zm0 0" fill="#00dd7b"/><path d="m374.292969 391.101562c25.199219 32.699219 19.5 79.800782-13.5 105.296876-32.699219 25.203124-79.800781 19.199218-105.296875-13.800782l-60-84.59375v-283.097656l60.601562-85.496094c25.796875-33.601562 72.898438-38.699218 104.996094-13.800781 33 25.199219 39 72.296875 13.800781 105.296875l-95.101562 135.398438zm0 0" fill="#00cc71"/></svg>