<svg viewBox="0 -91 512 512" xmlns="http://www.w3.org/2000/svg"><path d="m332 150v15c0 15.597656-2.101562 30.597656-6.300781 45-19.5 69.300781-84.097657 120-159.699219 120-91.199219 0-166-73.800781-166-165s74.800781-165 166-165c52.199219 0 102.101562 26.398438 127.597656 59.398438l-42.597656 42.902343c-18-24.601562-50.199219-42.300781-85-42.300781-57.898438 0-106 47.101562-106 105s48.101562 105 106 105c41.699219 0 79-24.601562 95.5-60h-80.5v-60zm0 0" fill="#ff3939"/><path d="m512 135v60h-45v45h-60v-45h-45v-60h45v-45h60v45zm0 0" fill="#ff3939"/><g fill="#c90232"><path d="m166 60v-60c52.199219 0 102.101562 26.398438 127.597656 59.398438l-42.597656 42.902343c-18-24.601562-50.199219-42.300781-85-42.300781zm0 0"/><path d="m332 150v15c0 15.597656-2.101562 30.597656-6.300781 45-19.5 69.300781-84.097657 120-159.699219 120v-60c41.699219 0 79-24.601562 95.5-60h-80.5v-60zm0 0"/><path d="m512 135v60h-45v45h-30v-150h30v45zm0 0"/></g></svg>