<svg viewBox="0 0 512 512" xmlns="http://www.w3.org/2000/svg"><path d="m437 0h-361c-41.398438 0-76 33.601562-76 75v362c0 41.398438 34.601562 75 76 75h361c41.398438 0 75-33.601562 75-75v-362c0-41.398438-33.601562-75-75-75zm0 0" fill="#25d9f8"/><path d="m512 75v362c0 41.398438-33.601562 75-75 75h-181v-512h181c41.398438 0 75 33.601562 75 75zm0 0" fill="#00c0f1"/><path d="m241 211c0-33.089844-26.910156-60-60-60h-90v210h90c33.089844 0 60-26.910156 60-60 0-18.007812-8.132812-33.996094-20.730469-45 12.597657-11.003906 20.730469-26.992188 20.730469-45zm-30 90c0 16.539062-13.460938 30-30 30h-60v-60h60c16.539062 0 30 13.460938 30 30zm-90-60v-60h60c16.539062 0 30 13.460938 30 30s-13.460938 30-30 30zm0 0" fill="#ececf1"/><g fill="#e2e2e7"><path d="m421 286c0-41.351562-33.648438-75-75-75s-75 33.648438-75 75 33.648438 75 75 75c26.6875 0 51.578125-14.371094 64.949219-37.484375l-25.957031-15.03125c-8.039063 13.886719-22.980469 22.515625-38.992188 22.515625-19.554688 0-36.238281-12.539062-42.4375-30h117.4375zm-117.4375-15c6.195312-17.460938 22.882812-30 42.4375-30s36.238281 12.539062 42.4375 30zm0 0"/><path d="m286 151h120v30h-120zm0 0"/></g></svg>