<svg viewBox="0 -46 512 512" xmlns="http://www.w3.org/2000/svg"><path d="m362 105v74.097656l-43.800781 14.703125-31.199219-15.601562v-58.199219c0-16.5-14.5-30-31-30s-31 13.5-31 30v187.5c0 61.5-49.800781 112.5-112.5 112.5-62.101562 0-112.5-50.398438-112.5-112.5 0 0 0-73.199219 0-82.5h90v75c0 16.5 13.5 30 30 30s30-13.5 30-30c0 0 0-192 0-195 0-56.398438 47.199219-105 106-105s106 48.601562 106 105zm0 0" fill="#ff7816"/><g fill="#ff4b00"><path d="m422 225c0 5.367188 0 78.078125 0 75 0 16.5-13.5 30-30 30s-30-13.5-30-30c0-5.199219 0-94.5625 0-89.101562l-46.199219 15.300781-28.800781-14.398438c0 4.476563 0 100.226563 0 95.699219 0 61.382812 49.890625 112.5 112.5 112.5 62.101562 0 112.5-50.398438 112.5-112.5 0-14.941406 0-86.648438 0-82.5zm0 0"/><path d="m362 105v74.097656l-43.800781 14.703125-31.199219-15.601562v-58.199219c0-16.5-14.5-30-31-30v-90c58.800781 0 106 48.601562 106 105zm0 0"/></g></svg>