<svg viewBox="-61 0 512 512" xmlns="http://www.w3.org/2000/svg"><path d="m388.5 355.699219c-11.398438 89.101562-90.902344 156.300781-184.800781 156.300781h-23.699219c-99.300781 0-180-80.699219-180-180v-287c0-24.902344 20.097656-45 45-45s45 20.097656 45 45v287c0 49.5 40.5 90 90 90h26.101562c47.097657 0 87-33.601562 92.996094-77.101562 7.800782-55.5-34.796875-101.398438-86.699218-102.898438h-17.398438c-24.902344 0-45-20.101562-45-45 0-24.902344 20.097656-45 45-45h15c107.398438 0 192.597656 94.199219 178.5 203.699219zm0 0" fill="#ff3939"/><path d="m388.5 355.699219c-11.398438 89.101562-90.902344 156.300781-184.800781 156.300781h-8.699219v-90h11.101562c47.097657 0 87-33.601562 92.996094-77.101562 7.800782-55.5-34.796875-101.398438-86.699218-102.898438h-17.398438v-90h15c107.398438 0 192.597656 94.199219 178.5 203.699219zm0 0" fill="#c90232"/></svg>